<?xml version="1.0" encoding="UTF-8" standalone="no"?>
<svg
   version="1"
   viewBox="0 0 48 48"
   enable-background="new 0 0 48 48"
   id="svg104"
   sodipodi:docname="calculator-icon.svg"
   inkscape:version="1.2 (dc2aedaf03, 2022-05-15)"
   xmlns:inkscape="http://www.inkscape.org/namespaces/inkscape"
   xmlns:sodipodi="http://sodipodi.sourceforge.net/DTD/sodipodi-0.dtd"
   xmlns="http://www.w3.org/2000/svg"
   xmlns:svg="http://www.w3.org/2000/svg">
  <defs
     id="defs108" />
  <sodipodi:namedview
     id="namedview106"
     pagecolor="#505050"
     bordercolor="#eeeeee"
     borderopacity="1"
     inkscape:showpageshadow="0"
     inkscape:pageopacity="0"
     inkscape:pagecheckerboard="0"
     inkscape:deskcolor="#505050"
     showgrid="false"
     inkscape:zoom="8.6354167"
     inkscape:cx="14.127865"
     inkscape:cy="23.971049"
     inkscape:window-width="1920"
     inkscape:window-height="1009"
     inkscape:window-x="-8"
     inkscape:window-y="-8"
     inkscape:window-maximized="1"
     inkscape:current-layer="g348" />
  <circle
     style="fill:#aecc8b;stroke:#aecc8b;stroke-width:0;stroke-opacity:1;fill-opacity:1"
     id="path266"
     cx="24"
     cy="24.115801"
     r="24" />
  <g
     id="g348"
     inkscape:label="calculator"
     transform="matrix(0.8,0,0,0.8,4.8,4.8)">
    <path
       fill="#616161"
       d="M 40,16 H 8 v 24 c 0,2.2 1.8,4 4,4 h 24 c 2.2,0 4,-1.8 4,-4 z"
       id="path56"
       style="stroke:#424242;stroke-opacity:1" />
    <path
       fill="#424242"
       d="M 36,4 H 12 C 9.8,4 8,5.8 8,8 v 9 H 40 V 8 C 40,5.8 38.2,4 36,4 Z"
       id="path58"
       style="stroke:#424242;stroke-opacity:1" />
    <path
       fill="#9ccc65"
       d="M 36,14 H 12 c -0.6,0 -1,-0.4 -1,-1 V 8 c 0,-0.6 0.4,-1 1,-1 h 24 c 0.6,0 1,0.4 1,1 v 5 c 0,0.6 -0.4,1 -1,1 z"
       id="path60"
       style="stroke:#9ccc65;stroke-opacity:1" />
    <g
       fill="#33691e"
       id="g66">
      <rect
         x="33"
         y="10"
         width="2"
         height="2"
         id="rect62" />
      <rect
         x="29"
         y="10"
         width="2"
         height="2"
         id="rect64" />
    </g>
    <path
       fill="#ff5252"
       d="m 36,23 h -3 c -0.6,0 -1,-0.4 -1,-1 v -2 c 0,-0.6 0.4,-1 1,-1 h 3 c 0.6,0 1,0.4 1,1 v 2 c 0,0.6 -0.4,1 -1,1 z"
       id="path68" />
    <g
       fill="#e0e0e0"
       id="g94">
      <path
         d="m 15,23 h -3 c -0.6,0 -1,-0.4 -1,-1 v -2 c 0,-0.6 0.4,-1 1,-1 h 3 c 0.6,0 1,0.4 1,1 v 2 c 0,0.6 -0.4,1 -1,1 z"
         id="path70" />
      <path
         d="m 22,23 h -3 c -0.6,0 -1,-0.4 -1,-1 v -2 c 0,-0.6 0.4,-1 1,-1 h 3 c 0.6,0 1,0.4 1,1 v 2 c 0,0.6 -0.4,1 -1,1 z"
         id="path72" />
      <path
         d="m 29,23 h -3 c -0.6,0 -1,-0.4 -1,-1 v -2 c 0,-0.6 0.4,-1 1,-1 h 3 c 0.6,0 1,0.4 1,1 v 2 c 0,0.6 -0.4,1 -1,1 z"
         id="path74" />
      <path
         d="m 15,29 h -3 c -0.6,0 -1,-0.4 -1,-1 v -2 c 0,-0.6 0.4,-1 1,-1 h 3 c 0.6,0 1,0.4 1,1 v 2 c 0,0.6 -0.4,1 -1,1 z"
         id="path76" />
      <path
         d="m 22,29 h -3 c -0.6,0 -1,-0.4 -1,-1 v -2 c 0,-0.6 0.4,-1 1,-1 h 3 c 0.6,0 1,0.4 1,1 v 2 c 0,0.6 -0.4,1 -1,1 z"
         id="path78" />
      <path
         d="m 29,29 h -3 c -0.6,0 -1,-0.4 -1,-1 v -2 c 0,-0.6 0.4,-1 1,-1 h 3 c 0.6,0 1,0.4 1,1 v 2 c 0,0.6 -0.4,1 -1,1 z"
         id="path80" />
      <path
         d="m 15,35 h -3 c -0.6,0 -1,-0.4 -1,-1 v -2 c 0,-0.6 0.4,-1 1,-1 h 3 c 0.6,0 1,0.4 1,1 v 2 c 0,0.6 -0.4,1 -1,1 z"
         id="path82" />
      <path
         d="m 22,35 h -3 c -0.6,0 -1,-0.4 -1,-1 v -2 c 0,-0.6 0.4,-1 1,-1 h 3 c 0.6,0 1,0.4 1,1 v 2 c 0,0.6 -0.4,1 -1,1 z"
         id="path84" />
      <path
         d="m 29,35 h -3 c -0.6,0 -1,-0.4 -1,-1 v -2 c 0,-0.6 0.4,-1 1,-1 h 3 c 0.6,0 1,0.4 1,1 v 2 c 0,0.6 -0.4,1 -1,1 z"
         id="path86" />
      <path
         d="m 15,41 h -3 c -0.6,0 -1,-0.4 -1,-1 v -2 c 0,-0.6 0.4,-1 1,-1 h 3 c 0.6,0 1,0.4 1,1 v 2 c 0,0.6 -0.4,1 -1,1 z"
         id="path88" />
      <path
         d="m 22,41 h -3 c -0.6,0 -1,-0.4 -1,-1 v -2 c 0,-0.6 0.4,-1 1,-1 h 3 c 0.6,0 1,0.4 1,1 v 2 c 0,0.6 -0.4,1 -1,1 z"
         id="path90" />
      <path
         d="m 29,41 h -3 c -0.6,0 -1,-0.4 -1,-1 v -2 c 0,-0.6 0.4,-1 1,-1 h 3 c 0.6,0 1,0.4 1,1 v 2 c 0,0.6 -0.4,1 -1,1 z"
         id="path92" />
    </g>
    <g
       fill="#bdbdbd"
       id="g102">
      <path
         d="m 36,29 h -3 c -0.6,0 -1,-0.4 -1,-1 v -2 c 0,-0.6 0.4,-1 1,-1 h 3 c 0.6,0 1,0.4 1,1 v 2 c 0,0.6 -0.4,1 -1,1 z"
         id="path96" />
      <path
         d="m 36,35 h -3 c -0.6,0 -1,-0.4 -1,-1 v -2 c 0,-0.6 0.4,-1 1,-1 h 3 c 0.6,0 1,0.4 1,1 v 2 c 0,0.6 -0.4,1 -1,1 z"
         id="path98" />
      <path
         d="m 36,41 h -3 c -0.6,0 -1,-0.4 -1,-1 v -2 c 0,-0.6 0.4,-1 1,-1 h 3 c 0.6,0 1,0.4 1,1 v 2 c 0,0.6 -0.4,1 -1,1 z"
         id="path100" />
    </g>
  </g>
</svg>
